Coordinates
version=1
nRows=8
nColumns=42
inDegrees=yes

Units are S.I. units (second, meters, Newtons, ...)
If the header above contains a line with 'inDegrees', this indicates whether rotational values are in degrees (yes) or radians (no).

endheader
time	pelvis_tilt	pelvis_list	pelvis_rotation	pelvis_tx	pelvis_ty	pelvis_tz	hip_flexion_r	hip_adduction_r	hip_rotation_r	knee_angle_r	knee_adduction_r	knee_angle_r_beta	ankle_angle_r	subtalar_angle_r	mtp_angle_r	hip_flexion_l	hip_adduction_l	hip_rotation_l	knee_angle_l	knee_adduction_l	knee_angle_l_beta	ankle_angle_l	subtalar_angle_l	mtp_angle_l	lumbar_extension	lumbar_bending	lumbar_rotation	arm_flex_r	arm_add_r	arm_rot_r	elbow_flex_r	pro_sup_r	wrist_flex_r	wrist_dev_r	arm_flex_l	arm_add_l	arm_rot_l	elbow_flex_l	pro_sup_l	wrist_flex_l	wrist_dev_l
      1.75000000	      8.11173837	      1.70917594	     -1.07986016	     -0.46272932	      0.89692465	      0.19900356	     26.65421911	     -5.44344176	     -5.48480105	     62.31088119	     -0.95329757	      1.08753004	      6.32356796	     -4.91609519	     -7.56480543	      4.60129450	      2.89551592	    -23.38974388	     33.84413370	     -4.66364394	      0.59069157	     26.50080977	     28.91219884	     -7.56480543	    -20.48020434	      0.79224267	     -4.55266450	     -0.19387165	     -8.61386150	    -21.62573394	     30.90586742	     90.00000001	      0.00000000	      0.00000000	     -3.40022905	     -8.79791907	    -20.52725763	     39.77471213	     90.00000001	      0.00000000	      0.00000000
      1.76000000	      8.06603024	      1.64969678	     -0.82496049	     -0.45528012	      0.89670147	      0.19884352	     27.16297331	     -5.44579492	     -5.72500703	     59.54891345	     -0.68997009	      1.03932461	      7.10079231	     -2.98908737	     -7.56194431	      3.97819388	      2.87869029	    -23.27256940	     33.60115796	     -4.71126052	      0.58645084	     26.95855404	     29.22126721	     -7.56194431	    -20.53379903	      0.97234581	     -4.86488611	     -0.66966288	     -8.58839081	    -21.76293000	     31.25071974	     90.00000001	      0.00000000	      0.00000000	     -3.18109505	     -8.95383849	    -20.17340644	     39.78821792	     90.00000001	      0.00000000	      0.00000000
      1.77000000	      8.01041115	      1.64763279	     -0.47938187	     -0.44768540	      0.89629764	      0.19846923	     27.61463149	     -5.60578942	     -6.29781412	     56.72843498	     -0.58191607	      0.99009797	      8.01331172	     -0.31009094	     -7.55794664	      3.40500339	      2.92528406	    -23.35964320	     33.39018461	     -4.94349748	      0.58276866	     27.34409150	     29.90735073	     -7.55794664	    -20.54839268	      1.12197777	     -5.25639960	     -1.15197908	     -8.55179469	    -21.97037515	     31.54084522	     90.00000001	      0.00000000	      0.00000000	     -3.00125061	     -9.11057422	    -19.77269052	     39.87170050	     90.00000001	      0.00000000	      0.00000000
      1.78000000	      7.93913519	      1.62099443	     -0.24184533	     -0.44013311	      0.89576665	      0.19848344	     28.02832233	     -5.64965113	     -6.45686352	     53.86572540	     -0.16578013	      0.94013426	      8.67038573	      1.39423893	     -7.55565771	      2.80501357	      2.87653719	    -23.35363690	     33.17944572	     -4.97801946	      0.57909057	     27.81595462	     30.28565665	     -7.55565771	    -20.55135300	      1.24235955	     -5.49168379	     -1.62531221	     -8.49462686	    -22.14381687	     31.81270524	     90.00000001	      0.00000000	      0.00000000	     -2.75928222	     -9.23382992	    -19.48812119	     39.86607942	     90.00000001	      0.00000000	      0.00000000
      1.79000000	      7.86174796	      1.62962315	      0.04935140	     -0.43238249	      0.89505588	      0.19842472	     28.40373691	     -5.79223164	     -6.99840839	     51.05476615	      0.03020795	      0.89107377	      9.45925264	      3.74922217	     -7.55294905	      2.22365292	      2.83984824	    -23.52049423	     32.98281397	     -5.11574102	      0.57565870	     28.22638719	     31.03258343	     -7.55294905	    -20.53129023	      1.33308507	     -5.76964249	     -2.13069538	     -8.40274265	    -22.41973018	     32.01761063	     90.00000001	      0.00000000	      0.00000000	     -2.56092766	     -9.37595995	    -19.22183304	     39.89787193	     90.00000001	      0.00000000	      0.00000000
      1.80000000	      7.77021444	      1.67736816	      0.27114329	     -0.42474528	      0.89422034	      0.19855119	     28.75925973	     -5.96364987	     -7.14850244	     48.31180826	      0.55224519	      0.84320012	      9.97041869	      5.26913009	     -7.55128725	      1.67376553	      2.79384944	    -23.48468408	     32.89886590	     -5.04896248	      0.57419353	     28.71126490	     31.35859544	     -7.55128725	    -20.50133864	      1.34553277	     -5.97926601	     -2.55245800	     -8.31907048	    -22.61350641	     32.16779869	     90.00000001	      0.00000000	      0.00000000	     -2.32837080	     -9.45222842	    -19.05916353	     39.85044566	     90.00000001	      0.00000000	      0.00000000
      1.81000000	      7.46077123	      1.77158377	      0.52610968	     -0.41722170	      0.89282057	      0.19859168	     29.40137999	     -6.20191962	     -7.29195227	     45.81459407	      1.07053530	      0.79961551	     10.20672406	      6.10098648	     -7.55043323	      1.44255053	      2.93428453	    -23.29590950	     32.81980518	     -5.19012741	      0.57281366	     28.93510934	     31.38238403	     -7.55043323	    -20.22713121	      1.31713988	     -6.21527482	     -3.00909067	     -8.25248225	    -22.73329164	     32.26955736	     90.00000001	      0.00000000	      0.00000000	     -2.15997746	     -9.54178445	    -18.96533288	     39.93296416	     90.00000001	      0.00000000	      0.00000000
      1.82000000	      7.35947315	      1.78167408	      0.75642488	     -0.40957447	      0.89177707	      0.19882031	     29.67699299	     -6.43672525	     -7.65593628	     43.34442287	      1.67756627	      0.75650289	     10.62732931	      7.39421830	     -7.54954322	      0.93074421	      2.83997282	    -23.17399232	     32.76268040	     -5.12127854	      0.57181664	     29.42988519	     31.69351917	     -7.54954322	    -20.19835434	      1.37369639	     -6.35986024	     -3.40916708	     -8.15423389	    -22.96088685	     32.30242082	     90.00000001	      0.00000000	      0.00000000	     -1.87617594	     -9.60209219	    -18.86506052	     39.84338367	     90.00000001	      0.00000000	      0.00000000
